<svg viewBox="0 0 224 26" fill="none" xmlns="http://www.w3.org/2000/svg" style="color:#3E5779">
    <path d="M7.85047 24.6931C6.32116 24.0463 4.94686 23.1184 3.76682 21.9383C2.58657 20.7583 1.66197 19.384 1.01209 17.8545C0.342702 16.2703 0 14.5856 0 12.8526C0 11.1196 0.339411 9.43504 1.01209 7.85069C1.65868 6.32116 2.58657 4.94708 3.76682 3.76682C4.94686 2.58679 6.32116 1.66197 7.85047 1.01209C9.43503 0.339631 11.1194 0 12.8524 0C17.1463 0 21.1394 2.13095 23.5354 5.70373L19.3191 8.52973C17.8707 6.36655 15.4523 5.07644 12.8524 5.07644C10.7769 5.07644 8.82375 5.88484 7.35254 7.35276C5.88133 8.82068 5.07622 10.7769 5.07622 12.8526C5.07622 14.9285 5.88462 16.8814 7.35254 18.3526C8.82024 19.8208 10.7734 20.6285 12.8524 20.6285C15.4391 20.6285 17.8514 19.3454 19.3029 17.1985L23.5095 20.04C21.1135 23.5876 17.13 25.7052 12.8524 25.7052C11.1194 25.7052 9.43503 25.3658 7.85047 24.6931Z" fill="currentColor"/>
    <path d="M43.7287 15.876H33.9961V25.5114H28.9199V0.29126H33.9961V11.0583H43.7287V0.29126H48.8049V25.5114H43.7287V15.876Z" fill="currentColor"/>
    <path d="M56.7109 25.5114H73.0392V20.7904H56.7109V25.5114ZM56.7109 15.3585H73.0392V10.5408H56.7109V15.3585ZM56.7109 0.29126V5.10897H73.0392V0.29126H56.7109Z" fill="currentColor"/>
    <path d="M86.4247 24.6931C84.8954 24.0463 83.5211 23.1184 82.341 21.9383C81.1608 20.7583 80.2362 19.384 79.5863 17.8545C78.9169 16.2703 78.5742 14.5856 78.5742 12.8526C78.5742 11.1196 78.9136 9.43504 79.5863 7.85069C80.2329 6.32116 81.1608 4.94708 82.341 3.76682C83.5211 2.58679 84.8954 1.66197 86.4247 1.01209C88.0093 0.339631 89.6936 0 91.4266 0C95.7205 0 99.7136 2.13095 102.11 5.70373L97.8933 8.52973C96.4449 6.36655 94.0265 5.07644 91.4266 5.07644C89.3511 5.07644 87.398 5.88484 85.9268 7.35276C84.4555 8.82068 83.6504 10.7769 83.6504 12.8526C83.6504 14.9285 84.4588 16.8814 85.9268 18.3526C87.3945 19.8208 89.3476 20.6285 91.4266 20.6285C94.0134 20.6285 96.4256 19.3454 97.8771 17.1985L102.084 20.04C99.6877 23.5876 95.7043 25.7052 91.4266 25.7052C89.6936 25.7052 88.0093 25.3658 86.4247 24.6931Z" fill="currentColor"/>
    <path d="M121.381 0.29126L112.57 10.9355V0.29126H107.494V25.5114H112.57V18.4268L127.98 0.29126H121.381Z" fill="currentColor"/>
    <path d="M123.45 19.2969H117.146L121.662 25.5114H127.99L123.45 19.2969Z" fill="#F65018"/>
    <path d="M161.335 25.5114H155.201L149.197 16.8556V11.9313H150.167C151.696 11.9313 152.841 11.595 153.565 10.9289C154.186 10.3567 154.499 9.53203 154.499 8.47148C154.499 7.36578 154.176 6.52515 153.539 5.97548C152.886 5.40958 151.851 5.10897 150.555 5.10897H146.74V25.5114H141.663V0.29126H150.943C152.362 0.29126 153.643 0.494948 154.755 0.895749C155.851 1.29348 156.788 1.88854 157.542 2.6612C158.935 4.0936 159.673 6.12413 159.673 8.53617C159.673 10.6993 159.074 12.4874 157.894 13.8518C157.073 14.7992 155.99 15.5234 154.661 16.0117L161.335 25.5114Z" fill="currentColor"/>
    <path d="M167.09 1.90784L172.166 0.29126V25.5114H167.09V1.90784Z" fill="currentColor"/>
    <path d="M179.066 21.7892L178.384 21.0582L181.724 17.0621L182.587 18.1452C183.263 18.9924 184.145 19.6874 185.135 20.1531C186.066 20.5927 187.072 20.8223 188.042 20.8223C189.187 20.8223 190.163 20.5702 190.79 20.1143C191.356 19.7037 191.631 19.154 191.631 18.4298C191.631 17.6407 191.388 17.1526 190.771 16.6902C190.059 16.1598 188.908 15.7266 187.573 15.2223C187.46 15.1802 187.343 15.135 187.224 15.0896C185.39 14.4075 183.628 13.7059 182.215 12.5807C181.394 11.9275 180.786 11.2064 180.356 10.3787C179.878 9.46045 179.635 8.41613 179.635 7.27469C179.635 5.28626 180.495 3.44647 182.054 2.09476C183.567 0.785362 185.6 0.0644531 187.783 0.0644531C190.602 0.0644531 193.354 1.07961 195.737 2.997L196.597 3.69227L193.496 7.72746L192.591 6.98374C190.997 5.66776 189.244 4.9144 187.783 4.9144C186.425 4.9144 184.834 5.50288 184.808 7.16155C184.799 7.90198 185.154 8.30607 185.694 8.6845C186.467 9.2276 187.696 9.69637 188.996 10.1943L189.009 10.1976C189.212 10.2785 189.416 10.3594 189.62 10.4368C191.459 11.1579 193.199 11.837 194.518 12.9234C196.076 14.2102 196.836 15.9044 196.836 18.1064C196.836 19.2996 196.581 20.4086 196.076 21.4042C195.601 22.3356 194.922 23.1473 194.049 23.8165C192.459 25.032 190.315 25.7047 188.01 25.7047C184.601 25.7047 181.426 24.3146 179.066 21.7892Z" fill="currentColor"/>
    <path d="M217.391 0.29126L208.58 10.9355V0.29126H203.504V25.5114H208.58V18.4268L223.99 0.29126H217.391Z" fill="currentColor"/>
    <path d="M219.46 19.2969H213.156L217.673 25.5114H224L219.46 19.2969Z" fill="#F65018"/>
</svg>
