<svg viewBox="0 -24 1150 351"  fill="none" xmlns="http://www.w3.org/2000/svg" >
	<rect x="0" y="-24" width="1150" height="351" fill="aliceblue" />
    <path d="M239.694 289C253.501 289 264.694 277.807 264.694 264C264.694 250.193 253.501 239 239.694 239C225.887 239 214.694 250.193 214.694 264C214.694 277.807 225.887 289 239.694 289Z" fill="#EDF2F7"/><g clip-path="url(#clip0_1_262)">
    <path d="M237.278 264.958C237.278 265.732 237.585 266.474 238.132 267.021C238.679 267.568 239.421 267.875 240.194 267.875C240.968 267.875 241.71 267.568 242.257 267.021C242.804 266.474 243.111 265.732 243.111 264.958C243.111 264.185 242.804 263.443 242.257 262.896C241.71 262.349 240.968 262.042 240.194 262.042C239.421 262.042 238.679 262.349 238.132 262.896C237.585 263.443 237.278 264.185 237.278 264.958Z" stroke="#2F4463" stroke-width="2" stroke-linecap="round" stroke-linejoin="round"/>
    <path d="M234.361 276.625V275.167C234.361 274.393 234.668 273.651 235.215 273.104C235.762 272.557 236.504 272.25 237.278 272.25H243.111C243.885 272.25 244.626 272.557 245.173 273.104C245.72 273.651 246.028 274.393 246.028 275.167V276.625" stroke="#2F4463" stroke-width="2" stroke-linecap="round" stroke-linejoin="round"/>
    <path d="M244.569 253.292C244.569 254.065 244.877 254.807 245.424 255.354C245.971 255.901 246.712 256.208 247.486 256.208C248.259 256.208 249.001 255.901 249.548 255.354C250.095 254.807 250.403 254.065 250.403 253.292C250.403 252.518 250.095 251.776 249.548 251.229C249.001 250.682 248.259 250.375 247.486 250.375C246.712 250.375 245.971 250.682 245.424 251.229C244.877 251.776 244.569 252.518 244.569 253.292Z" stroke="#2F4463" stroke-width="2" stroke-linecap="round" stroke-linejoin="round"/>
    <path d="M247.486 260.583H250.403C251.176 260.583 251.918 260.891 252.465 261.438C253.012 261.985 253.319 262.726 253.319 263.5V264.958" stroke="#2F4463" stroke-width="2" stroke-linecap="round" stroke-linejoin="round"/>
    <path d="M229.986 253.292C229.986 254.065 230.293 254.807 230.84 255.354C231.387 255.901 232.129 256.208 232.903 256.208C233.676 256.208 234.418 255.901 234.965 255.354C235.512 254.807 235.819 254.065 235.819 253.292C235.819 252.518 235.512 251.776 234.965 251.229C234.418 250.682 233.676 250.375 232.903 250.375C232.129 250.375 231.387 250.682 230.84 251.229C230.293 251.776 229.986 252.518 229.986 253.292Z" stroke="#2F4463" stroke-width="2" stroke-linecap="round" stroke-linejoin="round"/>
    <path d="M227.069 264.958V263.5C227.069 262.726 227.377 261.985 227.924 261.438C228.471 260.891 229.212 260.583 229.986 260.583H232.903" stroke="#2F4463" stroke-width="2" stroke-linecap="round" stroke-linejoin="round"/>
</g>
    <path d="M218.007 302L214.779 297.812L215.499 297.38L219.027 302H218.007ZM212.259 302V293.6H213.123V302H212.259ZM212.859 298.148V297.368H215.487V298.148H212.859ZM215.571 297.896L214.755 297.752L217.887 293.6H218.847L215.571 297.896ZM219.765 302.072C219.669 302.072 219.569 302.064 219.465 302.048C219.369 302.032 219.265 302.012 219.153 301.988L219.213 301.256C219.269 301.264 219.321 301.276 219.369 301.292C219.425 301.3 219.473 301.304 219.513 301.304C219.769 301.304 219.973 301.208 220.125 301.016C220.285 300.824 220.405 300.568 220.485 300.248C220.565 299.928 220.621 299.568 220.653 299.168C220.685 298.76 220.713 298.352 220.737 297.944L220.845 295.7H225.465V302H224.613V296.192L224.829 296.444H221.397L221.601 296.18L221.505 298.004C221.481 298.548 221.437 299.068 221.373 299.564C221.317 300.06 221.225 300.496 221.097 300.872C220.977 301.248 220.809 301.544 220.593 301.76C220.377 301.968 220.101 302.072 219.765 302.072ZM227.887 302V295.7H228.739V300.704L232.951 295.7H233.707V302H232.855V296.984L228.655 302H227.887ZM238.848 302.06C238.192 302.06 237.616 301.924 237.12 301.652C236.624 301.372 236.236 300.992 235.956 300.512C235.676 300.024 235.536 299.468 235.536 298.844C235.536 298.22 235.668 297.668 235.932 297.188C236.204 296.708 236.572 296.332 237.036 296.06C237.508 295.78 238.036 295.64 238.62 295.64C239.212 295.64 239.736 295.776 240.192 296.048C240.656 296.312 241.02 296.688 241.284 297.176C241.548 297.656 241.68 298.212 241.68 298.844C241.68 298.884 241.676 298.928 241.668 298.976C241.668 299.016 241.668 299.06 241.668 299.108H236.184V298.472H241.212L240.876 298.724C240.876 298.268 240.776 297.864 240.576 297.512C240.384 297.152 240.12 296.872 239.784 296.672C239.448 296.472 239.06 296.372 238.62 296.372C238.188 296.372 237.8 296.472 237.456 296.672C237.112 296.872 236.844 297.152 236.652 297.512C236.46 297.872 236.364 298.284 236.364 298.748V298.88C236.364 299.36 236.468 299.784 236.676 300.152C236.892 300.512 237.188 300.796 237.564 301.004C237.948 301.204 238.384 301.304 238.872 301.304C239.256 301.304 239.612 301.236 239.94 301.1C240.276 300.964 240.564 300.756 240.804 300.476L241.284 301.028C241.004 301.364 240.652 301.62 240.228 301.796C239.812 301.972 239.352 302.06 238.848 302.06ZM243.566 302V295.7H244.418V298.484H248.39V295.7H249.242V302H248.39V299.216H244.418V302H243.566ZM252.864 302V296.216L253.08 296.444H250.476V295.7H256.104V296.444H253.5L253.716 296.216V302H252.864ZM259.832 302.012L257.336 302V295.7H258.188V297.896L259.988 297.92C260.78 297.928 261.384 298.104 261.8 298.448C262.216 298.792 262.424 299.288 262.424 299.936C262.424 300.608 262.2 301.124 261.752 301.484C261.304 301.844 260.664 302.02 259.832 302.012ZM259.772 301.364C260.364 301.372 260.808 301.256 261.104 301.016C261.408 300.768 261.56 300.408 261.56 299.936C261.56 299.464 261.412 299.12 261.116 298.904C260.82 298.68 260.372 298.564 259.772 298.556L258.188 298.532V301.34L259.772 301.364ZM263.48 302V295.7H264.332V302H263.48Z" fill="black"/>
    <rect x="26" y="101" width="237" height="102" rx="7" fill="#e2ebf4"/>
    <path d="M218.812 167C232.62 167 243.812 155.807 243.812 142C243.812 128.193 232.62 117 218.812 117C205.005 117 193.812 128.193 193.812 142C193.812 155.807 205.005 167 218.812 167Z" fill="#EDF2F7"/>
    <g clip-path="url(#clip1_1_262)">
        <path d="M209.75 134.75C209.75 133.976 210.057 133.235 210.604 132.688C211.151 132.141 211.893 131.833 212.667 131.833H224.333C225.107 131.833 225.849 132.141 226.396 132.688C226.943 133.235 227.25 133.976 227.25 134.75V140.583C227.25 141.357 226.943 142.099 226.396 142.646C225.849 143.193 225.107 143.5 224.333 143.5H212.667C211.893 143.5 211.151 143.193 210.604 142.646C210.057 142.099 209.75 141.357 209.75 140.583V134.75Z" stroke="#2F4463" stroke-width="2" stroke-linecap="round" stroke-linejoin="round"/>
        <path d="M218.5 128.917V131.833" stroke="#2F4463" stroke-width="2" stroke-linecap="round" stroke-linejoin="round"/>
        <path d="M214.125 143.5V156.625" stroke="#2F4463" stroke-width="2" stroke-linecap="round" stroke-linejoin="round"/>
        <path d="M222.875 143.5V156.625" stroke="#2F4463" stroke-width="2" stroke-linecap="round" stroke-linejoin="round"/>
        <path d="M208.292 149.333L214.125 146.417" stroke="#2F4463" stroke-width="2" stroke-linecap="round" stroke-linejoin="round"/>
        <path d="M222.875 146.417L228.708 149.333" stroke="#2F4463" stroke-width="2" stroke-linecap="round" stroke-linejoin="round"/>
        <path d="M214.125 152.25H222.875" stroke="#2F4463" stroke-width="2" stroke-linecap="round" stroke-linejoin="round"/>
        <path d="M215.583 137.667V137.681" stroke="#2F4463" stroke-width="2" stroke-linecap="round" stroke-linejoin="round"/>
        <path d="M221.417 137.667V137.681" stroke="#2F4463" stroke-width="2" stroke-linecap="round" stroke-linejoin="round"/>
    </g>
    <path d="M201.748 190.25V181.85H204.892C205.604 181.85 206.216 181.966 206.728 182.198C207.24 182.422 207.632 182.75 207.904 183.182C208.184 183.606 208.324 184.122 208.324 184.73C208.324 185.322 208.184 185.834 207.904 186.266C207.632 186.69 207.24 187.018 206.728 187.25C206.216 187.482 205.604 187.598 204.892 187.598H202.24L202.636 187.178V190.25H201.748ZM202.636 187.25L202.24 186.818H204.868C205.708 186.818 206.344 186.638 206.776 186.278C207.216 185.91 207.436 185.394 207.436 184.73C207.436 184.058 207.216 183.538 206.776 183.17C206.344 182.802 205.708 182.618 204.868 182.618H202.24L202.636 182.198V187.25ZM212.492 190.31C211.884 190.31 211.336 190.174 210.848 189.902C210.368 189.622 209.988 189.242 209.708 188.762C209.428 188.274 209.288 187.718 209.288 187.094C209.288 186.462 209.428 185.906 209.708 185.426C209.988 184.946 210.368 184.57 210.848 184.298C211.328 184.026 211.876 183.89 212.492 183.89C213.116 183.89 213.668 184.026 214.148 184.298C214.636 184.57 215.016 184.946 215.288 185.426C215.568 185.906 215.708 186.462 215.708 187.094C215.708 187.718 215.568 188.274 215.288 188.762C215.016 189.242 214.636 189.622 214.148 189.902C213.66 190.174 213.108 190.31 212.492 190.31ZM212.492 189.554C212.948 189.554 213.352 189.454 213.704 189.254C214.056 189.046 214.332 188.758 214.532 188.39C214.74 188.014 214.844 187.582 214.844 187.094C214.844 186.598 214.74 186.166 214.532 185.798C214.332 185.43 214.056 185.146 213.704 184.946C213.352 184.738 212.952 184.634 212.504 184.634C212.056 184.634 211.656 184.738 211.304 184.946C210.952 185.146 210.672 185.43 210.464 185.798C210.256 186.166 210.152 186.598 210.152 187.094C210.152 187.582 210.256 188.014 210.464 188.39C210.672 188.758 210.952 189.046 211.304 189.254C211.656 189.454 212.052 189.554 212.492 189.554ZM220.36 190.322C219.848 190.322 219.392 190.238 218.992 190.07C218.6 189.902 218.264 189.646 217.984 189.302C217.704 188.958 217.492 188.534 217.348 188.03C217.204 187.518 217.132 186.926 217.132 186.254C217.132 185.654 217.188 185.13 217.3 184.682C217.412 184.226 217.568 183.834 217.768 183.506C217.968 183.178 218.2 182.902 218.464 182.678C218.736 182.446 219.028 182.262 219.34 182.126C219.66 181.982 219.988 181.874 220.324 181.802L223.156 181.142L223.3 181.934L220.636 182.534C220.468 182.574 220.264 182.63 220.024 182.702C219.792 182.774 219.552 182.882 219.304 183.026C219.064 183.17 218.84 183.37 218.632 183.626C218.424 183.882 218.256 184.214 218.128 184.622C218.008 185.022 217.948 185.522 217.948 186.122C217.948 186.25 217.952 186.354 217.96 186.434C217.968 186.506 217.976 186.586 217.984 186.674C218 186.754 218.012 186.874 218.02 187.034L217.648 186.722C217.736 186.234 217.916 185.81 218.188 185.45C218.46 185.082 218.8 184.798 219.208 184.598C219.624 184.39 220.084 184.286 220.588 184.286C221.172 184.286 221.692 184.414 222.148 184.67C222.604 184.918 222.96 185.266 223.216 185.714C223.48 186.162 223.612 186.682 223.612 187.274C223.612 187.858 223.476 188.382 223.204 188.846C222.94 189.31 222.564 189.674 222.076 189.938C221.588 190.194 221.016 190.322 220.36 190.322ZM220.456 189.614C220.904 189.614 221.3 189.514 221.644 189.314C221.988 189.106 222.256 188.826 222.448 188.474C222.648 188.122 222.748 187.726 222.748 187.286C222.748 186.854 222.648 186.47 222.448 186.134C222.256 185.798 221.988 185.534 221.644 185.342C221.3 185.142 220.9 185.042 220.444 185.042C219.996 185.042 219.6 185.138 219.256 185.33C218.912 185.514 218.64 185.774 218.44 186.11C218.248 186.446 218.152 186.834 218.152 187.274C218.152 187.714 218.248 188.11 218.44 188.462C218.64 188.814 218.912 189.094 219.256 189.302C219.608 189.51 220.008 189.614 220.456 189.614ZM228.031 190.31C227.423 190.31 226.875 190.174 226.387 189.902C225.907 189.622 225.527 189.242 225.247 188.762C224.967 188.274 224.827 187.718 224.827 187.094C224.827 186.462 224.967 185.906 225.247 185.426C225.527 184.946 225.907 184.57 226.387 184.298C226.867 184.026 227.415 183.89 228.031 183.89C228.655 183.89 229.207 184.026 229.687 184.298C230.175 184.57 230.555 184.946 230.827 185.426C231.107 185.906 231.247 186.462 231.247 187.094C231.247 187.718 231.107 188.274 230.827 188.762C230.555 189.242 230.175 189.622 229.687 189.902C229.199 190.174 228.647 190.31 228.031 190.31ZM228.031 189.554C228.487 189.554 228.891 189.454 229.243 189.254C229.595 189.046 229.871 188.758 230.071 188.39C230.279 188.014 230.383 187.582 230.383 187.094C230.383 186.598 230.279 186.166 230.071 185.798C229.871 185.43 229.595 185.146 229.243 184.946C228.891 184.738 228.491 184.634 228.043 184.634C227.595 184.634 227.195 184.738 226.843 184.946C226.491 185.146 226.211 185.43 226.003 185.798C225.795 186.166 225.691 186.598 225.691 187.094C225.691 187.582 225.795 188.014 226.003 188.39C226.211 188.758 226.491 189.046 226.843 189.254C227.195 189.454 227.591 189.554 228.031 189.554ZM234.033 190.25V184.466L234.249 184.694H231.645V183.95H237.273V184.694H234.669L234.885 184.466V190.25H234.033Z" fill="black"/>
    <path d="M71.2227 167.625C85.2024 167.625 96.5352 156.292 96.5352 142.312C96.5352 128.333 85.2024 117 71.2227 117C57.2429 117 45.9102 128.333 45.9102 142.312C45.9102 156.292 57.2429 167.625 71.2227 167.625Z" fill="#EDF2F7"/>
    <g clip-path="url(#clip2_1_262)">
        <path d="M69.6454 138.583L58.8785 149.401C58.5932 149.685 58.3668 150.022 58.2123 150.393C58.0577 150.764 57.9782 151.163 57.9782 151.565C57.9782 151.967 58.0577 152.365 58.2123 152.736C58.3668 153.108 58.5932 153.445 58.8785 153.728C59.4551 154.302 60.2353 154.624 61.0485 154.624C61.8618 154.624 62.642 154.302 63.2185 153.728L74.0204 142.958" stroke="#3E5779" stroke-width="2" stroke-linecap="round" stroke-linejoin="round"/>
        <path d="M79.4265 146.302L83.1977 142.531C83.4711 142.258 83.6247 141.887 83.6247 141.5C83.6247 141.113 83.4711 140.742 83.1977 140.469L72.1348 129.406C71.8613 129.133 71.4904 128.979 71.1038 128.979C70.7171 128.979 70.3462 129.133 70.0727 129.406L66.3015 133.177C66.0281 133.451 65.8745 133.822 65.8745 134.208C65.8745 134.595 66.0281 134.966 66.3015 135.239L77.3644 146.302C77.6379 146.576 78.0087 146.729 78.3954 146.729C78.7821 146.729 79.153 146.576 79.4265 146.302Z" stroke="#3E5779" stroke-width="2" stroke-linecap="round" stroke-linejoin="round"/>
    </g>
    <path d="M45.6141 191.016V182.616H49.0341C49.9301 182.616 50.7141 182.796 51.3861 183.156C52.0661 183.508 52.5941 184 52.9701 184.632C53.3461 185.264 53.5341 185.992 53.5341 186.816C53.5341 187.64 53.3461 188.368 52.9701 189C52.5941 189.632 52.0661 190.128 51.3861 190.488C50.7141 190.84 49.9301 191.016 49.0341 191.016H45.6141ZM46.5021 190.248H48.9861C49.7301 190.248 50.3741 190.104 50.9181 189.816C51.4701 189.52 51.8981 189.116 52.2021 188.604C52.5061 188.084 52.6581 187.488 52.6581 186.816C52.6581 186.136 52.5061 185.54 52.2021 185.028C51.8981 184.516 51.4701 184.116 50.9181 183.828C50.3741 183.532 49.7301 183.384 48.9861 183.384H46.5021V190.248ZM55.5282 191.016V182.616H58.9482C59.8442 182.616 60.6282 182.796 61.3002 183.156C61.9802 183.508 62.5082 184 62.8842 184.632C63.2602 185.264 63.4482 185.992 63.4482 186.816C63.4482 187.64 63.2602 188.368 62.8842 189C62.5082 189.632 61.9802 190.128 61.3002 190.488C60.6282 190.84 59.8442 191.016 58.9482 191.016H55.5282ZM56.4162 190.248H58.9002C59.6442 190.248 60.2882 190.104 60.8322 189.816C61.3842 189.52 61.8122 189.116 62.1162 188.604C62.4202 188.084 62.5722 187.488 62.5722 186.816C62.5722 186.136 62.4202 185.54 62.1162 185.028C61.8122 184.516 61.3842 184.116 60.8322 183.828C60.2882 183.532 59.6442 183.384 58.9002 183.384H56.4162V190.248ZM69.1142 191.088C68.4822 191.088 67.8942 190.984 67.3502 190.776C66.8142 190.56 66.3462 190.26 65.9462 189.876C65.5542 189.484 65.2462 189.032 65.0222 188.52C64.8062 188 64.6982 187.432 64.6982 186.816C64.6982 186.2 64.8062 185.636 65.0222 185.124C65.2462 184.604 65.5542 184.152 65.9462 183.768C66.3462 183.376 66.8142 183.076 67.3502 182.868C67.8862 182.652 68.4742 182.544 69.1142 182.544C69.7462 182.544 70.3302 182.652 70.8662 182.868C71.4022 183.076 71.8662 183.372 72.2582 183.756C72.6582 184.14 72.9662 184.592 73.1822 185.112C73.4062 185.632 73.5182 186.2 73.5182 186.816C73.5182 187.432 73.4062 188 73.1822 188.52C72.9662 189.04 72.6582 189.492 72.2582 189.876C71.8662 190.26 71.4022 190.56 70.8662 190.776C70.3302 190.984 69.7462 191.088 69.1142 191.088ZM69.1142 190.296C69.6182 190.296 70.0822 190.212 70.5062 190.044C70.9382 189.868 71.3102 189.624 71.6222 189.312C71.9422 188.992 72.1902 188.624 72.3662 188.208C72.5422 187.784 72.6302 187.32 72.6302 186.816C72.6302 186.312 72.5422 185.852 72.3662 185.436C72.1902 185.012 71.9422 184.644 71.6222 184.332C71.3102 184.012 70.9382 183.768 70.5062 183.6C70.0822 183.424 69.6182 183.336 69.1142 183.336C68.6102 183.336 68.1422 183.424 67.7102 183.6C67.2782 183.768 66.9022 184.012 66.5822 184.332C66.2702 184.644 66.0222 185.012 65.8382 185.436C65.6622 185.852 65.5742 186.312 65.5742 186.816C65.5742 187.312 65.6622 187.772 65.8382 188.196C66.0222 188.62 66.2702 188.992 66.5822 189.312C66.9022 189.624 67.2782 189.868 67.7102 190.044C68.1422 190.212 68.6102 190.296 69.1142 190.296ZM77.8246 191.088C77.2006 191.088 76.6006 190.988 76.0246 190.788C75.4566 190.58 75.0166 190.316 74.7046 189.996L75.0526 189.312C75.3486 189.6 75.7446 189.844 76.2406 190.044C76.7446 190.236 77.2726 190.332 77.8246 190.332C78.3526 190.332 78.7806 190.268 79.1086 190.14C79.4446 190.004 79.6886 189.824 79.8406 189.6C80.0006 189.376 80.0806 189.128 80.0806 188.856C80.0806 188.528 79.9846 188.264 79.7926 188.064C79.6086 187.864 79.3646 187.708 79.0606 187.596C78.7566 187.476 78.4206 187.372 78.0526 187.284C77.6846 187.196 77.3166 187.104 76.9486 187.008C76.5806 186.904 76.2406 186.768 75.9286 186.6C75.6246 186.432 75.3766 186.212 75.1846 185.94C75.0006 185.66 74.9086 185.296 74.9086 184.848C74.9086 184.432 75.0166 184.052 75.2326 183.708C75.4566 183.356 75.7966 183.076 76.2526 182.868C76.7086 182.652 77.2926 182.544 78.0046 182.544C78.4766 182.544 78.9446 182.612 79.4086 182.748C79.8726 182.876 80.2726 183.056 80.6086 183.288L80.3086 183.996C79.9486 183.756 79.5646 183.58 79.1566 183.468C78.7566 183.356 78.3686 183.3 77.9926 183.3C77.4886 183.3 77.0726 183.368 76.7446 183.504C76.4166 183.64 76.1726 183.824 76.0126 184.056C75.8606 184.28 75.7846 184.536 75.7846 184.824C75.7846 185.152 75.8766 185.416 76.0606 185.616C76.2526 185.816 76.5006 185.972 76.8046 186.084C77.1166 186.196 77.4566 186.296 77.8246 186.384C78.1926 186.472 78.5566 186.568 78.9166 186.672C79.2846 186.776 79.6206 186.912 79.9246 187.08C80.2366 187.24 80.4846 187.456 80.6686 187.728C80.8606 188 80.9566 188.356 80.9566 188.796C80.9566 189.204 80.8446 189.584 80.6206 189.936C80.3966 190.28 80.0526 190.56 79.5886 190.776C79.1326 190.984 78.5446 191.088 77.8246 191.088ZM86.0321 191.016V182.616H86.9201V190.248H91.6241V191.016H86.0321ZM93.2328 191.016L96.8568 183L97.1208 183.384H91.9248L92.3688 182.964V184.956H91.5168V182.616H97.6848V183.228L94.1688 191.016H93.2328Z" fill="black"/>
    <path d="M145 166C158.807 166 170 154.807 170 141C170 127.193 158.807 116 145 116C131.193 116 120 127.193 120 141C120 154.807 131.193 166 145 166Z" fill="#EDF2F7"/>
    <path d="M132.566 152.703C141.004 137.516 149.441 137.516 157.879 152.703V159.031H132.566V152.703Z" fill="#415A75"/>
    <path d="M135.098 141.312C141.848 131.188 148.598 131.188 155.348 141.312C151.973 132.875 148.598 128.656 145.223 128.656C141.848 128.656 138.473 132.875 135.098 141.312Z" fill="#2F4463"/>
    <path d="M154.082 155.234H136.363C135.664 155.234 135.098 155.801 135.098 156.5V162.828C135.098 163.527 135.664 164.094 136.363 164.094H154.082C154.781 164.094 155.348 163.527 155.348 162.828V156.5C155.348 155.801 154.781 155.234 154.082 155.234Z" fill="#2F4463"/>
    <path d="M127.25 190.016L131.09 181.616H131.966L135.806 190.016H134.87L131.342 182.132H131.702L128.174 190.016H127.25ZM128.762 187.772L129.026 187.052H133.91L134.174 187.772H128.762ZM137.885 190.016V184.232L138.101 184.46H135.497V183.716H141.125V184.46H138.521L138.737 184.232V190.016H137.885ZM146.269 190.016V188.624L146.233 188.396V186.068C146.233 185.532 146.081 185.12 145.777 184.832C145.481 184.544 145.037 184.4 144.445 184.4C144.037 184.4 143.649 184.468 143.281 184.604C142.913 184.74 142.601 184.92 142.345 185.144L141.961 184.508C142.281 184.236 142.665 184.028 143.113 183.884C143.561 183.732 144.033 183.656 144.529 183.656C145.345 183.656 145.973 183.86 146.413 184.268C146.861 184.668 147.085 185.28 147.085 186.104V190.016H146.269ZM144.097 190.076C143.625 190.076 143.213 190 142.861 189.848C142.517 189.688 142.253 189.472 142.069 189.2C141.885 188.92 141.793 188.6 141.793 188.24C141.793 187.912 141.869 187.616 142.021 187.352C142.181 187.08 142.437 186.864 142.789 186.704C143.149 186.536 143.629 186.452 144.229 186.452H146.401V187.088H144.253C143.645 187.088 143.221 187.196 142.981 187.412C142.749 187.628 142.633 187.896 142.633 188.216C142.633 188.576 142.773 188.864 143.053 189.08C143.333 189.296 143.725 189.404 144.229 189.404C144.709 189.404 145.121 189.296 145.465 189.08C145.817 188.856 146.073 188.536 146.233 188.12L146.425 188.708C146.265 189.124 145.985 189.456 145.585 189.704C145.193 189.952 144.697 190.076 144.097 190.076ZM153.973 190.016L151.381 186.896L152.089 186.476L154.981 190.016H153.973ZM149.353 190.016V183.716H150.205V190.016H149.353ZM149.941 187.208V186.476H151.969V187.208H149.941ZM152.161 186.956L151.369 186.836L153.877 183.716H154.801L152.161 186.956ZM156.325 190.016V183.716H157.177V188.72L161.389 183.716H162.145V190.016H161.293V185L157.093 190.016H156.325Z" fill="black"/>
    <path d="M211.461 59.4545C211.41 59.0227 211.203 58.6875 210.839 58.4489C210.476 58.2102 210.03 58.0909 209.501 58.0909C209.115 58.0909 208.777 58.1534 208.487 58.2784C208.2 58.4034 207.976 58.5753 207.814 58.794C207.655 59.0128 207.575 59.2614 207.575 59.5398C207.575 59.7727 207.63 59.973 207.741 60.1406C207.855 60.3054 208 60.4432 208.176 60.554C208.352 60.6619 208.537 60.7514 208.73 60.8224C208.923 60.8906 209.101 60.946 209.262 60.9886L210.149 61.2273C210.376 61.2869 210.629 61.3693 210.907 61.4744C211.189 61.5795 211.457 61.723 211.713 61.9048C211.971 62.0838 212.184 62.3139 212.352 62.5952C212.52 62.8764 212.603 63.2216 212.603 63.6307C212.603 64.1023 212.48 64.5284 212.233 64.9091C211.988 65.2898 211.63 65.5923 211.159 65.8168C210.69 66.0412 210.12 66.1534 209.45 66.1534C208.825 66.1534 208.284 66.0526 207.826 65.8509C207.372 65.6491 207.014 65.3679 206.753 65.0071C206.494 64.6463 206.348 64.2273 206.314 63.75H207.405C207.433 64.0795 207.544 64.3523 207.737 64.5682C207.933 64.7812 208.18 64.9403 208.478 65.0455C208.78 65.1477 209.103 65.1989 209.45 65.1989C209.853 65.1989 210.216 65.1335 210.537 65.0028C210.858 64.8693 211.112 64.6847 211.299 64.4489C211.487 64.2102 211.581 63.9318 211.581 63.6136C211.581 63.3239 211.5 63.0881 211.338 62.9062C211.176 62.7244 210.963 62.5767 210.699 62.4631C210.434 62.3494 210.149 62.25 209.842 62.1648L208.768 61.858C208.086 61.6619 207.547 61.3821 207.149 61.0185C206.751 60.6548 206.552 60.179 206.552 59.5909C206.552 59.1023 206.684 58.6761 206.949 58.3125C207.216 57.946 207.574 57.6619 208.022 57.4602C208.474 57.2557 208.978 57.1534 209.535 57.1534C210.098 57.1534 210.598 57.2543 211.035 57.456C211.473 57.6548 211.819 57.9276 212.075 58.2741C212.333 58.6207 212.47 59.0142 212.484 59.4545H211.461ZM214.341 66V57.2727H219.608V58.2102H215.398V61.1591H219.335V62.0966H215.398V65.0625H219.676V66H214.341ZM228.876 61.6364C228.876 62.5568 228.71 63.3523 228.378 64.0227C228.045 64.6932 227.59 65.2102 227.01 65.5739C226.43 65.9375 225.768 66.1193 225.024 66.1193C224.28 66.1193 223.618 65.9375 223.038 65.5739C222.459 65.2102 222.003 64.6932 221.67 64.0227C221.338 63.3523 221.172 62.5568 221.172 61.6364C221.172 60.7159 221.338 59.9205 221.67 59.25C222.003 58.5795 222.459 58.0625 223.038 57.6989C223.618 57.3352 224.28 57.1534 225.024 57.1534C225.768 57.1534 226.43 57.3352 227.01 57.6989C227.59 58.0625 228.045 58.5795 228.378 59.25C228.71 59.9205 228.876 60.7159 228.876 61.6364ZM227.854 61.6364C227.854 60.8807 227.727 60.2429 227.474 59.723C227.224 59.2031 226.885 58.8097 226.456 58.5426C226.03 58.2756 225.553 58.142 225.024 58.142C224.496 58.142 224.017 58.2756 223.588 58.5426C223.162 58.8097 222.822 59.2031 222.57 59.723C222.32 60.2429 222.195 60.8807 222.195 61.6364C222.195 62.392 222.32 63.0298 222.57 63.5497C222.822 64.0696 223.162 64.4631 223.588 64.7301C224.017 64.9972 224.496 65.1307 225.024 65.1307C225.553 65.1307 226.03 64.9972 226.456 64.7301C226.885 64.4631 227.224 64.0696 227.474 63.5497C227.727 63.0298 227.854 62.392 227.854 61.6364ZM234.267 61.1676V62.1051H230.449V61.1676H234.267ZM236.037 68.4545V59.4545H237.008V60.4943H237.128C237.201 60.3807 237.304 60.2358 237.434 60.0597C237.568 59.8807 237.758 59.7216 238.005 59.5824C238.255 59.4403 238.593 59.3693 239.02 59.3693C239.571 59.3693 240.056 59.5071 240.477 59.7827C240.897 60.0582 241.226 60.4489 241.461 60.9545C241.697 61.4602 241.815 62.0568 241.815 62.7443C241.815 63.4375 241.697 64.0384 241.461 64.5469C241.226 65.0526 240.899 65.4446 240.481 65.723C240.064 65.9986 239.582 66.1364 239.037 66.1364C238.616 66.1364 238.28 66.0668 238.027 65.9276C237.774 65.7855 237.579 65.625 237.443 65.446C237.306 65.2642 237.201 65.1136 237.128 64.9943H237.042V68.4545H236.037ZM237.025 62.7273C237.025 63.2216 237.098 63.6577 237.243 64.0355C237.387 64.4105 237.599 64.7045 237.878 64.9176C238.156 65.1278 238.497 65.233 238.9 65.233C239.321 65.233 239.672 65.1222 239.953 64.9006C240.237 64.6761 240.45 64.375 240.592 63.9972C240.737 63.6165 240.809 63.1932 240.809 62.7273C240.809 62.267 240.738 61.8523 240.596 61.483C240.457 61.1108 240.245 60.8168 239.961 60.6009C239.68 60.3821 239.326 60.2727 238.9 60.2727C238.491 60.2727 238.147 60.3764 237.869 60.5838C237.591 60.7884 237.38 61.0753 237.238 61.4446C237.096 61.8111 237.025 62.2386 237.025 62.7273ZM246.008 66.1364C245.417 66.1364 244.899 65.9957 244.453 65.7145C244.01 65.4332 243.663 65.0398 243.413 64.5341C243.166 64.0284 243.042 63.4375 243.042 62.7614C243.042 62.0795 243.166 61.4844 243.413 60.9759C243.663 60.4673 244.01 60.0724 244.453 59.7912C244.899 59.5099 245.417 59.3693 246.008 59.3693C246.599 59.3693 247.116 59.5099 247.559 59.7912C248.005 60.0724 248.352 60.4673 248.599 60.9759C248.849 61.4844 248.974 62.0795 248.974 62.7614C248.974 63.4375 248.849 64.0284 248.599 64.5341C248.352 65.0398 248.005 65.4332 247.559 65.7145C247.116 65.9957 246.599 66.1364 246.008 66.1364ZM246.008 65.233C246.457 65.233 246.826 65.1179 247.116 64.8878C247.406 64.6577 247.62 64.3551 247.76 63.9801C247.899 63.6051 247.968 63.1989 247.968 62.7614C247.968 62.3239 247.899 61.9162 247.76 61.5384C247.62 61.1605 247.406 60.8551 247.116 60.6222C246.826 60.3892 246.457 60.2727 246.008 60.2727C245.559 60.2727 245.19 60.3892 244.9 60.6222C244.61 60.8551 244.396 61.1605 244.257 61.5384C244.118 61.9162 244.048 62.3239 244.048 62.7614C244.048 63.1989 244.118 63.6051 244.257 63.9801C244.396 64.3551 244.61 64.6577 244.9 64.8878C245.19 65.1179 245.559 65.233 246.008 65.233ZM255.367 57L255.879 57.6136C255.68 57.8068 255.45 57.9418 255.188 58.0185C254.927 58.0952 254.631 58.142 254.302 58.1591C253.972 58.1761 253.606 58.1932 253.202 58.2102C252.748 58.2273 252.371 58.3381 252.073 58.5426C251.775 58.7472 251.545 59.0426 251.383 59.429C251.221 59.8153 251.117 60.2898 251.072 60.8523H251.157C251.379 60.4432 251.685 60.142 252.077 59.9489C252.469 59.7557 252.89 59.6591 253.339 59.6591C253.85 59.6591 254.31 59.7784 254.719 60.017C255.129 60.2557 255.452 60.6094 255.691 61.0781C255.93 61.5469 256.049 62.125 256.049 62.8125C256.049 63.4972 255.927 64.0881 255.683 64.5852C255.441 65.0824 255.102 65.4659 254.664 65.7358C254.229 66.0028 253.719 66.1364 253.134 66.1364C252.549 66.1364 252.036 65.9986 251.596 65.723C251.156 65.4446 250.813 65.0327 250.569 64.4872C250.325 63.9389 250.202 63.2614 250.202 62.4545V61.7557C250.202 60.2983 250.45 59.1932 250.944 58.4403C251.441 57.6875 252.188 57.2983 253.185 57.2727C253.538 57.2614 253.852 57.2585 254.127 57.2642C254.403 57.2699 254.643 57.2571 254.847 57.2259C255.052 57.1946 255.225 57.1193 255.367 57ZM253.134 65.233C253.529 65.233 253.869 65.1335 254.153 64.9347C254.44 64.7358 254.66 64.456 254.813 64.0952C254.967 63.7315 255.043 63.304 255.043 62.8125C255.043 62.3352 254.965 61.929 254.809 61.5938C254.656 61.2585 254.435 61.0028 254.148 60.8267C253.862 60.6506 253.518 60.5625 253.117 60.5625C252.825 60.5625 252.562 60.6122 252.329 60.7116C252.096 60.8111 251.897 60.9574 251.732 61.1506C251.567 61.3437 251.44 61.5795 251.349 61.858C251.261 62.1364 251.214 62.4545 251.208 62.8125C251.208 63.5455 251.38 64.1321 251.724 64.5724C252.067 65.0128 252.538 65.233 253.134 65.233ZM260.246 66.1364C259.656 66.1364 259.137 65.9957 258.691 65.7145C258.248 65.4332 257.901 65.0398 257.651 64.5341C257.404 64.0284 257.281 63.4375 257.281 62.7614C257.281 62.0795 257.404 61.4844 257.651 60.9759C257.901 60.4673 258.248 60.0724 258.691 59.7912C259.137 59.5099 259.656 59.3693 260.246 59.3693C260.837 59.3693 261.354 59.5099 261.798 59.7912C262.244 60.0724 262.59 60.4673 262.837 60.9759C263.087 61.4844 263.212 62.0795 263.212 62.7614C263.212 63.4375 263.087 64.0284 262.837 64.5341C262.59 65.0398 262.244 65.4332 261.798 65.7145C261.354 65.9957 260.837 66.1364 260.246 66.1364ZM260.246 65.233C260.695 65.233 261.065 65.1179 261.354 64.8878C261.644 64.6577 261.859 64.3551 261.998 63.9801C262.137 63.6051 262.207 63.1989 262.207 62.7614C262.207 62.3239 262.137 61.9162 261.998 61.5384C261.859 61.1605 261.644 60.8551 261.354 60.6222C261.065 60.3892 260.695 60.2727 260.246 60.2727C259.798 60.2727 259.428 60.3892 259.139 60.6222C258.849 60.8551 258.634 61.1605 258.495 61.5384C258.356 61.9162 258.286 62.3239 258.286 62.7614C258.286 63.1989 258.356 63.6051 258.495 63.9801C258.634 64.3551 258.849 64.6577 259.139 64.8878C259.428 65.1179 259.798 65.233 260.246 65.233ZM263.892 60.392V59.4545H269.21V60.392H267.063V66H266.057V60.392H263.892ZM271.547 61.8239H273.422C274.189 61.8239 274.775 62.0185 275.181 62.4077C275.588 62.7969 275.791 63.2898 275.791 63.8864C275.791 64.2784 275.7 64.6349 275.518 64.956C275.336 65.2741 275.069 65.5284 274.717 65.7188C274.365 65.9062 273.933 66 273.422 66H270.677V59.4545H271.683V65.0625H273.422C273.819 65.0625 274.146 64.9574 274.402 64.7472C274.657 64.5369 274.785 64.267 274.785 63.9375C274.785 63.5909 274.657 63.3082 274.402 63.0895C274.146 62.8707 273.819 62.7614 273.422 62.7614H271.547V61.8239ZM276.831 66V59.4545H277.836V66H276.831Z" fill="black"/>
    <path d="M240.694 51C254.501 51 265.694 39.8071 265.694 26C265.694 12.1929 254.501 1 240.694 1C226.887 1 215.694 12.1929 215.694 26C215.694 39.8071 226.887 51 240.694 51Z" fill="#EDF2F7"/>
    <path d="M231.694 24C231.694 24.9193 231.875 25.8295 232.227 26.6788C232.579 27.5281 233.095 28.2997 233.745 28.9497C234.395 29.5998 235.166 30.1154 236.015 30.4672C236.865 30.8189 237.775 31 238.694 31C239.614 31 240.524 30.8189 241.373 30.4672C242.222 30.1154 242.994 29.5998 243.644 28.9497C244.294 28.2997 244.81 27.5281 245.161 26.6788C245.513 25.8295 245.694 24.9193 245.694 24C245.694 23.0807 245.513 22.1705 245.161 21.3212C244.81 20.4719 244.294 19.7003 243.644 19.0503C242.994 18.4002 242.222 17.8846 241.373 17.5328C240.524 17.1811 239.614 17 238.694 17C237.775 17 236.865 17.1811 236.015 17.5328C235.166 17.8846 234.395 18.4002 233.745 19.0503C233.095 19.7003 232.579 20.4719 232.227 21.3212C231.875 22.1705 231.694 23.0807 231.694 24Z" stroke="#2F4463" stroke-width="2" stroke-linecap="round" stroke-linejoin="round"/>
    <path d="M249.694 35L243.694 29" stroke="#2F4463" stroke-width="2" stroke-linecap="round" stroke-linejoin="round"/>
    <path d="M440.306 147.029L451.138 153.468L440.306 159.029L440.306 147.029Z" fill="#F05A28"/>
    <path d="M452.529 171.819L447.148 181.884L441.306 171.984L452.529 171.819Z" fill="#2F4463"/>
    <path d="M452.529 171.819L447.148 181.884L441.306 171.984L452.529 171.819Z" fill="#2F4463"/>
    <path d="M452.529 171.819L447.148 181.884L441.306 171.984L452.529 171.819Z" fill="#2F4463"/>
    <path d="M452.529 171.819L447.148 181.884L441.306 171.984L452.529 171.819Z" fill="#2F4463"/>
    <path d="M450.719 131.81L439.306 131.891L445.212 122.029L450.719 131.81Z" fill="#2F4463"/>
    <path d="M450.719 131.81L439.306 131.891L445.212 122.029L450.719 131.81Z" fill="#2F4463"/>
    <path d="M450.719 131.81L439.306 131.891L445.212 122.029L450.719 131.81Z" fill="#2F4463"/>
    <path d="M450.719 131.81L439.306 131.891L445.212 122.029L450.719 131.81Z" fill="#2F4463"/>
    <path d="M512.5 209.008C543.704 209.008 569 183.71 569 152.504C569 121.298 543.704 96 512.5 96C481.296 96 456 121.298 456 152.504C456 183.71 481.296 209.008 512.5 209.008Z" fill="#EDF2F7"/>
    <path d="M512.5 202.228C539.96 202.228 562.22 179.966 562.22 152.504C562.22 125.042 539.96 102.78 512.5 102.78C485.04 102.78 462.78 125.042 462.78 152.504C462.78 179.966 485.04 202.228 512.5 202.228Z" stroke="#2F4463" stroke-width="4"/>
    <path d="M512.5 202.228C523.734 202.228 532.84 179.966 532.84 152.504C532.84 125.042 523.734 102.78 512.5 102.78C501.267 102.78 492.16 125.042 492.16 152.504C492.16 179.966 501.267 202.228 512.5 202.228Z" stroke="#2F4463" stroke-width="3"/>
    <path d="M512.5 172.846C539.96 172.846 562.22 163.738 562.22 152.504C562.22 141.27 539.96 132.163 512.5 132.163C485.04 132.163 462.78 141.27 462.78 152.504C462.78 163.738 485.04 172.846 512.5 172.846Z" stroke="#2F4463" stroke-width="3"/>
    <path opacity="0.8" d="M462.78 152.504H562.22" stroke="#2F4463" stroke-width="3"/>
    <path d="M483.957 230.049V221.649H484.833V228.609L490.209 221.649H491.013V230.049H490.137V223.101L484.761 230.049H483.957ZM493.644 230.049V223.749H494.496V226.533H498.468V223.749H499.32V230.049H498.468V227.265H494.496V230.049H493.644ZM502.941 230.049V224.265L503.157 224.493H500.553V223.749H506.181V224.493H503.577L503.793 224.265V230.049H502.941ZM509.82 230.109C509.164 230.109 508.588 229.973 508.092 229.701C507.596 229.421 507.208 229.041 506.928 228.561C506.648 228.073 506.508 227.517 506.508 226.893C506.508 226.269 506.64 225.717 506.904 225.237C507.176 224.757 507.544 224.381 508.008 224.109C508.48 223.829 509.008 223.689 509.592 223.689C510.184 223.689 510.708 223.825 511.164 224.097C511.628 224.361 511.992 224.737 512.256 225.225C512.52 225.705 512.652 226.261 512.652 226.893C512.652 226.933 512.648 226.977 512.64 227.025C512.64 227.065 512.64 227.109 512.64 227.157H507.156V226.521H512.184L511.848 226.773C511.848 226.317 511.748 225.913 511.548 225.561C511.356 225.201 511.092 224.921 510.756 224.721C510.42 224.521 510.032 224.421 509.592 224.421C509.16 224.421 508.772 224.521 508.428 224.721C508.084 224.921 507.816 225.201 507.624 225.561C507.432 225.921 507.336 226.333 507.336 226.797V226.929C507.336 227.409 507.44 227.833 507.648 228.201C507.864 228.561 508.16 228.845 508.536 229.053C508.92 229.253 509.356 229.353 509.844 229.353C510.228 229.353 510.584 229.285 510.912 229.149C511.248 229.013 511.536 228.805 511.776 228.525L512.256 229.077C511.976 229.413 511.624 229.669 511.2 229.845C510.784 230.021 510.324 230.109 509.82 230.109ZM517.79 230.109C517.246 230.109 516.754 229.985 516.314 229.737C515.874 229.481 515.522 229.117 515.258 228.645C515.002 228.165 514.874 227.581 514.874 226.893C514.874 226.205 515.002 225.625 515.258 225.153C515.514 224.673 515.862 224.309 516.302 224.061C516.742 223.813 517.238 223.689 517.79 223.689C518.39 223.689 518.926 223.825 519.398 224.097C519.878 224.361 520.254 224.737 520.526 225.225C520.798 225.705 520.934 226.261 520.934 226.893C520.934 227.533 520.798 228.093 520.526 228.573C520.254 229.053 519.878 229.429 519.398 229.701C518.926 229.973 518.39 230.109 517.79 230.109ZM514.538 232.377V223.749H515.354V225.645L515.27 226.905L515.39 228.177V232.377H514.538ZM517.73 229.353C518.178 229.353 518.578 229.253 518.93 229.053C519.282 228.845 519.562 228.557 519.77 228.189C519.978 227.813 520.082 227.381 520.082 226.893C520.082 226.405 519.978 225.977 519.77 225.609C519.562 225.241 519.282 224.953 518.93 224.745C518.578 224.537 518.178 224.433 517.73 224.433C517.282 224.433 516.878 224.537 516.518 224.745C516.166 224.953 515.886 225.241 515.678 225.609C515.478 225.977 515.378 226.405 515.378 226.893C515.378 227.381 515.478 227.813 515.678 228.189C515.886 228.557 516.166 228.845 516.518 229.053C516.878 229.253 517.282 229.353 517.73 229.353ZM522.765 230.049V223.749H523.617V226.533H527.589V223.749H528.441V230.049H527.589V227.265H523.617V230.049H522.765ZM533.562 230.109C532.906 230.109 532.33 229.973 531.834 229.701C531.338 229.421 530.95 229.041 530.67 228.561C530.39 228.073 530.25 227.517 530.25 226.893C530.25 226.269 530.382 225.717 530.646 225.237C530.918 224.757 531.286 224.381 531.75 224.109C532.222 223.829 532.75 223.689 533.334 223.689C533.926 223.689 534.45 223.825 534.906 224.097C535.37 224.361 535.734 224.737 535.998 225.225C536.262 225.705 536.394 226.261 536.394 226.893C536.394 226.933 536.39 226.977 536.382 227.025C536.382 227.065 536.382 227.109 536.382 227.157H530.898V226.521H535.926L535.59 226.773C535.59 226.317 535.49 225.913 535.29 225.561C535.098 225.201 534.834 224.921 534.498 224.721C534.162 224.521 533.774 224.421 533.334 224.421C532.902 224.421 532.514 224.521 532.17 224.721C531.826 224.921 531.558 225.201 531.366 225.561C531.174 225.921 531.078 226.333 531.078 226.797V226.929C531.078 227.409 531.182 227.833 531.39 228.201C531.606 228.561 531.902 228.845 532.278 229.053C532.662 229.253 533.098 229.353 533.586 229.353C533.97 229.353 534.326 229.285 534.654 229.149C534.99 229.013 535.278 228.805 535.518 228.525L535.998 229.077C535.718 229.413 535.366 229.669 534.942 229.845C534.526 230.021 534.066 230.109 533.562 230.109ZM539.199 230.049V224.265L539.415 224.493H536.811V223.749H542.439V224.493H539.835L540.051 224.265V230.049H539.199Z" fill="black"/>
    <path d="M737 158C740.314 158 743 155.314 743 152C743 148.686 740.314 146 737 146C733.686 146 731 148.686 731 152C731 155.314 733.686 158 737 158Z" fill="#F05A28"/>
    <path d="M733.4 148.4L740.6 155.6ZM740.6 148.4L733.4 155.6Z" fill="black"/>
    <path d="M733.4 148.4L740.6 155.6M740.6 148.4L733.4 155.6" stroke="white" stroke-width="3" stroke-linecap="round"/>
    <path d="M737 178C740.314 178 743 175.314 743 172C743 168.686 740.314 166 737 166C733.686 166 731 168.686 731 172C731 175.314 733.686 178 737 178Z" fill="#F05A28"/>
    <path d="M733.4 168.4L740.6 175.6ZM740.6 168.4L733.4 175.6Z" fill="black"/>
    <path d="M733.4 168.4L740.6 175.6M740.6 168.4L733.4 175.6" stroke="white" stroke-width="3" stroke-linecap="round"/>
    <path d="M737 138C740.314 138 743 135.314 743 132C743 128.686 740.314 126 737 126C733.686 126 731 128.686 731 132C731 135.314 733.686 138 737 138Z" fill="#F05A28"/>
    <path d="M733.4 128.4L740.6 135.6ZM740.6 128.4L733.4 135.6Z" fill="black"/>
    <path d="M733.4 128.4L740.6 135.6M740.6 128.4L733.4 135.6" stroke="white" stroke-width="3" stroke-linecap="round"/>
    <path d="M714.201 164.081L725.034 170.52L714.201 176.081L714.201 164.081Z" fill="#F05A28"/>
    <path d="M713.201 146.081L724.034 152.52L713.201 158.081L713.201 146.081Z" fill="#F05A28"/>
    <path d="M714.201 128.081L725.034 134.52L714.201 140.081L714.201 128.081Z" fill="#F05A28"/>
    <path d="M730.201 110.081L741.034 116.52L730.201 122.081L730.201 110.081Z" fill="#2F4463"/>
    <path d="M730.201 183.081L741.034 189.52L730.201 195.081L730.201 183.081Z" fill="#2F4463"/>
    <path d="M890.188 104.75H766.812V193.25H890.188V104.75Z" fill="white" stroke="#E5EDF6"/>
    <path d="M890.188 104.75H766.812V125.4H890.188V104.75Z" fill="#3E5779"/>
    <path d="M778.562 118.025C780.185 118.025 781.5 116.704 781.5 115.075C781.5 113.446 780.185 112.125 778.562 112.125C776.94 112.125 775.625 113.446 775.625 115.075C775.625 116.704 776.94 118.025 778.562 118.025Z" fill="#EAF3FA"/>
    <path d="M787.375 118.025C788.997 118.025 790.312 116.704 790.312 115.075C790.312 113.446 788.997 112.125 787.375 112.125C785.753 112.125 784.438 113.446 784.438 115.075C784.438 116.704 785.753 118.025 787.375 118.025Z" fill="#EAF3FA"/>
    <path d="M796.188 118.025C797.81 118.025 799.125 116.704 799.125 115.075C799.125 113.446 797.81 112.125 796.188 112.125C794.565 112.125 793.25 113.446 793.25 115.075C793.25 116.704 794.565 118.025 796.188 118.025Z" fill="#EAF3FA"/>
    <path d="M872.562 131.3V184.4" stroke="#A7D9F5" stroke-width="1.5" stroke-linecap="round" stroke-dasharray="3 4"/>
    <!-- Animated flame inside WAF block -->
    <g id="waf-flame">
        <!-- outer flame -->
        <path class="flame flame-outer" d="M823.763 164.325C823.763 162.524 826.032 161.601 827.398 162.847C831.604 166.687 834.048 175.117 831.157 181.512L830.985 181.868L831.011 181.874C832.353 182.147 833.595 180.994 835.958 177.427L836.258 176.969C836.433 176.701 836.669 176.476 836.95 176.31C837.231 176.144 837.548 176.042 837.876 176.012C838.205 175.981 838.537 176.024 838.845 176.135C839.154 176.247 839.432 176.425 839.657 176.656C842.522 179.592 845.244 185.613 845.244 189.487C845.244 198.216 837.53 205.256 828.059 205.256C818.589 205.256 810.875 198.216 810.875 189.486C810.875 184.877 813.07 179.834 816.529 176.59L817.828 175.385C818.346 174.902 818.761 174.505 819.156 174.108C822.227 171.013 823.763 168.123 823.763 164.325Z" fill="#FF6A3D"/>
        <!-- inner flame -->
        <path class="flame flame-inner" d="M823.235 179.162C823.235 178.081 824.596 177.528 825.415 178.275C827.939 180.579 829.405 185.637 827.671 189.474L827.568 189.688L827.583 189.691C828.389 189.855 829.134 189.163 830.551 187.023L830.732 186.748C830.836 186.588 830.978 186.453 831.147 186.353C831.315 186.253 831.505 186.192 831.702 186.174C831.9 186.156 832.099 186.181 832.284 186.248C832.469 186.315 832.636 186.422 832.771 186.56C834.49 188.322 836.123 191.935 836.123 194.259C836.123 199.497 831.495 203.721 825.812 203.721C820.13 203.721 815.502 199.497 815.502 194.258C815.502 191.493 816.819 188.467 818.894 186.521L819.674 185.798C819.984 185.508 820.233 185.27 820.47 185.031C822.313 183.175 823.235 181.441 823.235 179.162Z" fill="#D94A2B"/>

        <!-- small sparks -->
        <g class="flame-sparks" fill="#FF6A3D">
            <circle cx="832.5" cy="186" r="1.2">
                <animate attributeName="cy" values="186;176" dur="1.6s" repeatCount="indefinite"/>
                <animate attributeName="opacity" values="0;0.9;0" dur="1.6s" repeatCount="indefinite"/>
            </circle>
            <circle cx="836.5" cy="188" r="1">
                <animate attributeName="cy" values="188;178" dur="1.9s" begin="-.6s" repeatCount="indefinite"/>
                <animate attributeName="opacity" values="0;0.9;0" dur="1.9s" begin="-.6s" repeatCount="indefinite"/>
            </circle>
            <circle cx="828.5" cy="186" r="0.9">
                <animate attributeName="cy" values="186;174" dur="1.4s" begin="-.3s" repeatCount="indefinite"/>
                <animate attributeName="opacity" values="0;0.9;0" dur="1.4s" begin="-.3s" repeatCount="indefinite"/>
            </circle>
        </g>
    </g>
    <g clip-path="url(#clip3_1_262)">
        <path d="M783.909 156.497C783.342 156.249 782.833 155.892 782.396 155.438C781.958 154.984 781.616 154.455 781.375 153.867C781.127 153.258 781 152.61 781 151.943C781 151.277 781.126 150.629 781.375 150.019C781.615 149.431 781.958 148.903 782.396 148.449C782.833 147.995 783.342 147.639 783.909 147.389C784.496 147.131 785.12 147 785.762 147C787.353 147 788.833 147.82 789.721 149.194L788.158 150.281C787.622 149.449 786.726 148.952 785.762 148.952C784.993 148.952 784.27 149.263 783.724 149.828C783.179 150.393 782.881 151.145 782.881 151.943C782.881 152.742 783.18 153.493 783.724 154.059C784.268 154.623 784.992 154.934 785.762 154.934C786.721 154.934 787.615 154.441 788.152 153.615L789.711 154.708C788.823 156.072 787.347 156.887 785.762 156.887C785.12 156.887 784.496 156.756 783.909 156.497Z" fill="#3E5779"/>
        <path d="M797.203 153.106H793.597V156.812H791.716V147.112H793.597V151.253H797.203V147.112H799.084V156.812H797.203V153.106Z" fill="#3E5779"/>
        <path d="M802.013 156.812H808.064V154.996H802.013V156.812ZM802.013 152.907H808.064V151.054H802.013V152.907ZM802.013 147.112V148.965H808.064V147.112H802.013Z" fill="#3E5779"/>
        <path d="M813.023 156.497C812.457 156.249 811.948 155.892 811.51 155.438C811.073 154.984 810.73 154.455 810.49 153.867C810.241 153.258 810.115 152.61 810.115 151.943C810.115 151.277 810.24 150.629 810.49 150.019C810.729 149.431 811.073 148.903 811.51 148.449C811.948 147.995 812.457 147.639 813.023 147.389C813.611 147.131 814.235 147 814.877 147C816.468 147 817.947 147.82 818.835 149.194L817.273 150.281C816.736 149.449 815.84 148.952 814.877 148.952C814.108 148.952 813.384 149.263 812.839 149.828C812.294 150.393 811.995 151.145 811.995 151.943C811.995 152.742 812.295 153.493 812.839 154.059C813.383 154.623 814.106 154.934 814.877 154.934C815.835 154.934 816.729 154.441 817.267 153.615L818.826 154.708C817.938 156.072 816.462 156.887 814.877 156.887C814.235 156.887 813.611 156.756 813.023 156.497Z" fill="#3E5779"/>
        <path d="M825.976 147.112L822.711 151.206V147.112H820.83V156.812H822.711V154.087L828.421 147.112H825.976Z" fill="#3E5779"/>
        <path d="M826.743 154.422H824.407L826.08 156.812H828.425L826.743 154.422Z" fill="#F65018"/>
        <path d="M840.78 156.812H838.508L836.283 153.483V151.589H836.642C837.209 151.589 837.633 151.46 837.901 151.203C838.131 150.983 838.247 150.666 838.247 150.258C838.247 149.833 838.128 149.51 837.892 149.298C837.65 149.081 837.266 148.965 836.786 148.965H835.372V156.812H833.491V147.112H836.93C837.456 147.112 837.93 147.19 838.342 147.345C838.748 147.497 839.096 147.726 839.375 148.024C839.891 148.574 840.165 149.355 840.165 150.283C840.165 151.115 839.943 151.803 839.505 152.328C839.201 152.692 838.8 152.971 838.307 153.158L840.78 156.812Z" fill="#3E5779"/>
        <path d="M842.913 147.734L844.794 147.112V156.812H842.913V147.734Z" fill="#3E5779"/>
        <path d="M847.35 155.38L847.098 155.099L848.335 153.562L848.655 153.979C848.906 154.305 849.232 154.572 849.599 154.751C849.944 154.92 850.317 155.009 850.676 155.009C851.101 155.009 851.462 154.912 851.695 154.736C851.904 154.578 852.006 154.367 852.006 154.088C852.006 153.785 851.916 153.597 851.687 153.419C851.424 153.215 850.997 153.049 850.503 152.855C850.461 152.839 850.417 152.821 850.373 152.804C849.694 152.541 849.041 152.271 848.517 151.839C848.213 151.587 847.988 151.31 847.828 150.992C847.651 150.639 847.561 150.237 847.561 149.798C847.561 149.033 847.88 148.326 848.458 147.806C849.018 147.302 849.771 147.025 850.58 147.025C851.625 147.025 852.645 147.415 853.528 148.153L853.846 148.42L852.697 149.972L852.362 149.686C851.771 149.18 851.122 148.89 850.58 148.89C850.077 148.89 849.488 149.116 849.478 149.754C849.475 150.039 849.606 150.195 849.806 150.34C850.093 150.549 850.548 150.729 851.03 150.921L851.035 150.922C851.11 150.953 851.185 150.984 851.261 151.014C851.942 151.291 852.587 151.553 853.076 151.971C853.653 152.465 853.935 153.117 853.935 153.964C853.935 154.423 853.84 154.849 853.653 155.232C853.477 155.591 853.226 155.903 852.902 156.16C852.313 156.628 851.519 156.886 850.664 156.886C849.401 156.886 848.225 156.352 847.35 155.38Z" fill="#3E5779"/>
        <path d="M861.551 147.112L858.286 151.206V147.112H856.406V156.812H858.286V154.087L863.996 147.112H861.551Z" fill="#3E5779"/>
        <path d="M862.318 154.422H859.982L861.656 156.812H864L862.318 154.422Z" fill="#F65018"/>
    </g>
    <path d="M801.133 230.072C800.501 230.072 799.917 229.968 799.381 229.76C798.845 229.544 798.381 229.244 797.989 228.86C797.597 228.476 797.289 228.024 797.065 227.504C796.849 226.984 796.741 226.416 796.741 225.8C796.741 225.184 796.849 224.616 797.065 224.096C797.289 223.576 797.597 223.124 797.989 222.74C798.389 222.356 798.857 222.06 799.393 221.852C799.929 221.636 800.513 221.528 801.145 221.528C801.753 221.528 802.325 221.632 802.861 221.84C803.397 222.04 803.849 222.344 804.217 222.752L803.653 223.316C803.309 222.964 802.929 222.712 802.513 222.56C802.097 222.4 801.649 222.32 801.169 222.32C800.665 222.32 800.197 222.408 799.765 222.584C799.333 222.752 798.957 222.996 798.637 223.316C798.317 223.628 798.065 223.996 797.881 224.42C797.705 224.836 797.617 225.296 797.617 225.8C797.617 226.304 797.705 226.768 797.881 227.192C798.065 227.608 798.317 227.976 798.637 228.296C798.957 228.608 799.333 228.852 799.765 229.028C800.197 229.196 800.665 229.28 801.169 229.28C801.649 229.28 802.097 229.2 802.513 229.04C802.929 228.88 803.309 228.624 803.653 228.272L804.217 228.836C803.849 229.244 803.397 229.552 802.861 229.76C802.325 229.968 801.749 230.072 801.133 230.072ZM805.813 230V221.096H806.665V225.428L806.497 225.104C806.697 224.648 807.017 224.292 807.457 224.036C807.897 223.772 808.421 223.64 809.029 223.64C809.541 223.64 809.989 223.74 810.373 223.94C810.765 224.132 811.069 224.428 811.285 224.828C811.509 225.228 811.621 225.732 811.621 226.34V230H810.769V226.424C810.769 225.76 810.601 225.26 810.265 224.924C809.937 224.58 809.473 224.408 808.873 224.408C808.425 224.408 808.033 224.5 807.697 224.684C807.369 224.86 807.113 225.12 806.929 225.464C806.753 225.8 806.665 226.208 806.665 226.688V230H805.813ZM816.598 230.06C815.942 230.06 815.366 229.924 814.87 229.652C814.374 229.372 813.986 228.992 813.706 228.512C813.426 228.024 813.286 227.468 813.286 226.844C813.286 226.22 813.418 225.668 813.682 225.188C813.954 224.708 814.322 224.332 814.786 224.06C815.258 223.78 815.786 223.64 816.37 223.64C816.962 223.64 817.486 223.776 817.942 224.048C818.406 224.312 818.77 224.688 819.034 225.176C819.298 225.656 819.43 226.212 819.43 226.844C819.43 226.884 819.426 226.928 819.418 226.976C819.418 227.016 819.418 227.06 819.418 227.108H813.934V226.472H818.962L818.626 226.724C818.626 226.268 818.526 225.864 818.326 225.512C818.134 225.152 817.87 224.872 817.534 224.672C817.198 224.472 816.81 224.372 816.37 224.372C815.938 224.372 815.55 224.472 815.206 224.672C814.862 224.872 814.594 225.152 814.402 225.512C814.21 225.872 814.114 226.284 814.114 226.748V226.88C814.114 227.36 814.218 227.784 814.426 228.152C814.642 228.512 814.938 228.796 815.314 229.004C815.698 229.204 816.134 229.304 816.622 229.304C817.006 229.304 817.362 229.236 817.69 229.1C818.026 228.964 818.314 228.756 818.554 228.476L819.034 229.028C818.754 229.364 818.402 229.62 817.978 229.796C817.562 229.972 817.102 230.06 816.598 230.06ZM823.781 230.06C823.157 230.06 822.597 229.924 822.101 229.652C821.613 229.372 821.229 228.992 820.949 228.512C820.669 228.024 820.529 227.468 820.529 226.844C820.529 226.212 820.669 225.656 820.949 225.176C821.229 224.696 821.613 224.32 822.101 224.048C822.597 223.776 823.157 223.64 823.781 223.64C824.317 223.64 824.801 223.744 825.233 223.952C825.665 224.16 826.005 224.472 826.253 224.888L825.617 225.32C825.401 225 825.133 224.764 824.813 224.612C824.493 224.46 824.145 224.384 823.769 224.384C823.321 224.384 822.917 224.488 822.557 224.696C822.197 224.896 821.913 225.18 821.705 225.548C821.497 225.916 821.393 226.348 821.393 226.844C821.393 227.34 821.497 227.772 821.705 228.14C821.913 228.508 822.197 228.796 822.557 229.004C822.917 229.204 823.321 229.304 823.769 229.304C824.145 229.304 824.493 229.228 824.813 229.076C825.133 228.924 825.401 228.692 825.617 228.38L826.253 228.812C826.005 229.22 825.665 229.532 825.233 229.748C824.801 229.956 824.317 230.06 823.781 230.06ZM828.505 228.368L828.529 227.276L832.453 223.7H833.497L830.725 226.352L830.245 226.76L828.505 228.368ZM827.833 230V221.096H828.685V230H827.833ZM832.717 230L830.089 226.724L830.641 226.064L833.761 230H832.717ZM838.325 230V221.6H841.469C842.533 221.6 843.369 221.856 843.977 222.368C844.593 222.872 844.901 223.576 844.901 224.48C844.901 225.072 844.761 225.584 844.481 226.016C844.209 226.44 843.817 226.768 843.305 227C842.793 227.224 842.181 227.336 841.469 227.336H838.817L839.213 226.928V230H838.325ZM844.061 230L841.901 226.952H842.861L845.033 230H844.061ZM839.213 227L838.817 226.58H841.445C842.285 226.58 842.921 226.396 843.353 226.028C843.793 225.66 844.013 225.144 844.013 224.48C844.013 223.808 843.793 223.288 843.353 222.92C842.921 222.552 842.285 222.368 841.445 222.368H838.817L839.213 221.948V227ZM846.817 230V223.7H847.669V230H846.817ZM847.249 222.308C847.073 222.308 846.925 222.248 846.805 222.128C846.685 222.008 846.625 221.864 846.625 221.696C846.625 221.528 846.685 221.388 846.805 221.276C846.925 221.156 847.073 221.096 847.249 221.096C847.425 221.096 847.573 221.152 847.693 221.264C847.813 221.376 847.873 221.516 847.873 221.684C847.873 221.86 847.813 222.008 847.693 222.128C847.581 222.248 847.433 222.308 847.249 222.308ZM851.732 230.06C851.212 230.06 850.72 229.988 850.256 229.844C849.792 229.692 849.428 229.504 849.164 229.28L849.548 228.608C849.804 228.8 850.132 228.968 850.532 229.112C850.932 229.248 851.352 229.316 851.792 229.316C852.392 229.316 852.824 229.224 853.088 229.04C853.352 228.848 853.484 228.596 853.484 228.284C853.484 228.052 853.408 227.872 853.256 227.744C853.112 227.608 852.92 227.508 852.68 227.444C852.44 227.372 852.172 227.312 851.876 227.264C851.58 227.216 851.284 227.16 850.988 227.096C850.7 227.032 850.436 226.94 850.196 226.82C849.956 226.692 849.76 226.52 849.608 226.304C849.464 226.088 849.392 225.8 849.392 225.44C849.392 225.096 849.488 224.788 849.68 224.516C849.872 224.244 850.152 224.032 850.52 223.88C850.896 223.72 851.352 223.64 851.888 223.64C852.296 223.64 852.704 223.696 853.112 223.808C853.52 223.912 853.856 224.052 854.12 224.228L853.748 224.912C853.468 224.72 853.168 224.584 852.848 224.504C852.528 224.416 852.208 224.372 851.888 224.372C851.32 224.372 850.9 224.472 850.628 224.672C850.364 224.864 850.232 225.112 850.232 225.416C850.232 225.656 850.304 225.844 850.448 225.98C850.6 226.116 850.796 226.224 851.036 226.304C851.284 226.376 851.552 226.436 851.84 226.484C852.136 226.532 852.428 226.592 852.716 226.664C853.012 226.728 853.28 226.82 853.52 226.94C853.768 227.052 853.964 227.216 854.108 227.432C854.26 227.64 854.336 227.916 854.336 228.26C854.336 228.628 854.232 228.948 854.024 229.22C853.824 229.484 853.528 229.692 853.136 229.844C852.752 229.988 852.284 230.06 851.732 230.06ZM856.571 228.368L856.595 227.276L860.519 223.7H861.563L858.791 226.352L858.311 226.76L856.571 228.368ZM855.899 230V221.096H856.751V230H855.899ZM860.783 230L858.155 226.724L858.707 226.064L861.827 230H860.783ZM817.727 245L814.895 236.6H815.807L818.459 244.508H818.003L820.739 236.6H821.555L824.255 244.508H823.823L826.499 236.6H827.351L824.519 245H823.583L821.003 237.5H821.243L818.651 245H817.727ZM827.378 245L831.218 236.6H832.094L835.934 245H834.998L831.47 237.116H831.83L828.302 245H827.378ZM828.89 242.756L829.154 242.036H834.038L834.302 242.756H828.89ZM837.323 245V236.6H843.083V237.368H838.211V245H837.323ZM838.115 241.436V240.668H842.555V241.436H838.115Z" fill="black"/>
    <path d="M986.201 179.081L997.034 185.52L986.201 191.081L986.201 179.081Z" fill="#2F4463"/>
    <path d="M984.201 107.081L995.034 113.52L984.201 119.081L984.201 107.081Z" fill="#2F4463"/>
    <path d="M1113 111H1024.43C1019.78 111 1016 114.583 1016 119.003V125.005C1016 129.424 1019.78 133.007 1024.43 133.007H1113C1117.66 133.007 1121.43 129.424 1121.43 125.005V119.003C1121.43 114.583 1117.66 111 1113 111Z" fill="#2F4463"/>
    <path d="M1030.76 126.005C1033.09 126.005 1034.98 124.213 1034.98 122.004C1034.98 119.794 1033.09 118.002 1030.76 118.002C1028.43 118.002 1026.54 119.794 1026.54 122.004C1026.54 124.213 1028.43 126.005 1030.76 126.005Z" fill="#EDF2F7"/>
    <path opacity="0.9" d="M1104.57 118.002H1049.74C1047.41 118.002 1045.52 119.794 1045.52 122.004C1045.52 124.213 1047.41 126.005 1049.74 126.005H1104.57C1106.89 126.005 1108.78 124.213 1108.78 122.004C1108.78 119.794 1106.89 118.002 1104.57 118.002Z" fill="#EDF2F7"/>
    <path d="M1113 137.847H1024.43C1019.78 137.847 1016 141.43 1016 145.849V151.851C1016 156.271 1019.78 159.854 1024.43 159.854H1113C1117.66 159.854 1121.43 156.271 1121.43 151.851V145.849C1121.43 141.43 1117.66 137.847 1113 137.847Z" fill="#2F4463"/>
    <path d="M1030.76 152.852C1033.09 152.852 1034.98 151.06 1034.98 148.851C1034.98 146.641 1033.09 144.849 1030.76 144.849C1028.43 144.849 1026.54 146.641 1026.54 148.851C1026.54 151.06 1028.43 152.852 1030.76 152.852Z" fill="#EDF2F7"/>
    <path opacity="0.9" d="M1104.57 144.849H1049.74C1047.41 144.849 1045.52 146.641 1045.52 148.851C1045.52 151.06 1047.41 152.852 1049.74 152.852H1104.57C1106.89 152.852 1108.78 151.06 1108.78 148.851C1108.78 146.641 1106.89 144.849 1104.57 144.849Z" fill="#EDF2F7"/>
    <path d="M1113 164.772H1024.43C1019.78 164.772 1016 168.355 1016 172.774V178.776C1016 183.196 1019.78 186.779 1024.43 186.779H1113C1117.66 186.779 1121.43 183.196 1121.43 178.776V172.774C1121.43 168.355 1117.66 164.772 1113 164.772Z" fill="#2F4463"/>
    <path d="M1030.76 179.777C1033.09 179.777 1034.98 177.985 1034.98 175.775C1034.98 173.565 1033.09 171.774 1030.76 171.774C1028.43 171.774 1026.54 173.565 1026.54 175.775C1026.54 177.985 1028.43 179.777 1030.76 179.777Z" fill="#EDF2F7"/>
    <path opacity="0.9" d="M1104.57 171.774H1049.74C1047.41 171.774 1045.52 173.565 1045.52 175.775C1045.52 177.985 1047.41 179.777 1049.74 179.777H1104.57C1106.89 179.777 1108.78 177.985 1108.78 175.775C1108.78 173.565 1106.89 171.774 1104.57 171.774Z" fill="#EDF2F7"/>
    <path d="M1028.23 213V204.6H1031.73C1032.61 204.6 1033.31 204.784 1033.81 205.152C1034.33 205.512 1034.58 206.044 1034.58 206.748C1034.58 207.444 1034.34 207.972 1033.85 208.332C1033.36 208.684 1032.72 208.86 1031.93 208.86L1032.13 208.56C1033.07 208.56 1033.78 208.744 1034.27 209.112C1034.76 209.48 1035 210.02 1035 210.732C1035 211.452 1034.75 212.012 1034.23 212.412C1033.73 212.804 1032.97 213 1031.95 213H1028.23ZM1029.11 212.292H1031.95C1032.67 212.292 1033.21 212.16 1033.57 211.896C1033.94 211.632 1034.13 211.224 1034.13 210.672C1034.13 210.128 1033.94 209.728 1033.57 209.472C1033.21 209.216 1032.67 209.088 1031.95 209.088H1029.11V212.292ZM1029.11 208.404H1031.68C1032.33 208.404 1032.82 208.276 1033.17 208.02C1033.52 207.756 1033.69 207.368 1033.69 206.856C1033.69 206.344 1033.52 205.96 1033.17 205.704C1032.82 205.44 1032.33 205.308 1031.68 205.308H1029.11V208.404ZM1039.72 213.06C1039.06 213.06 1038.49 212.924 1037.99 212.652C1037.49 212.372 1037.11 211.992 1036.83 211.512C1036.55 211.024 1036.41 210.468 1036.41 209.844C1036.41 209.22 1036.54 208.668 1036.8 208.188C1037.07 207.708 1037.44 207.332 1037.91 207.06C1038.38 206.78 1038.91 206.64 1039.49 206.64C1040.08 206.64 1040.61 206.776 1041.06 207.048C1041.53 207.312 1041.89 207.688 1042.15 208.176C1042.42 208.656 1042.55 209.212 1042.55 209.844C1042.55 209.884 1042.55 209.928 1042.54 209.976C1042.54 210.016 1042.54 210.06 1042.54 210.108H1037.05V209.472H1042.08L1041.75 209.724C1041.75 209.268 1041.65 208.864 1041.45 208.512C1041.25 208.152 1040.99 207.872 1040.65 207.672C1040.32 207.472 1039.93 207.372 1039.49 207.372C1039.06 207.372 1038.67 207.472 1038.33 207.672C1037.98 207.872 1037.71 208.152 1037.52 208.512C1037.33 208.872 1037.23 209.284 1037.23 209.748V209.88C1037.23 210.36 1037.34 210.784 1037.55 211.152C1037.76 211.512 1038.06 211.796 1038.43 212.004C1038.82 212.204 1039.25 212.304 1039.74 212.304C1040.13 212.304 1040.48 212.236 1040.81 212.1C1041.15 211.964 1041.43 211.756 1041.67 211.476L1042.15 212.028C1041.87 212.364 1041.52 212.62 1041.1 212.796C1040.68 212.972 1040.22 213.06 1039.72 213.06ZM1047.27 213.072C1046.76 213.072 1046.3 212.988 1045.9 212.82C1045.51 212.652 1045.17 212.396 1044.89 212.052C1044.61 211.708 1044.4 211.284 1044.26 210.78C1044.11 210.268 1044.04 209.676 1044.04 209.004C1044.04 208.404 1044.1 207.88 1044.21 207.432C1044.32 206.976 1044.48 206.584 1044.68 206.256C1044.88 205.928 1045.11 205.652 1045.37 205.428C1045.64 205.196 1045.94 205.012 1046.25 204.876C1046.57 204.732 1046.9 204.624 1047.23 204.552L1050.06 203.892L1050.21 204.684L1047.54 205.284C1047.38 205.324 1047.17 205.38 1046.93 205.452C1046.7 205.524 1046.46 205.632 1046.21 205.776C1045.97 205.92 1045.75 206.12 1045.54 206.376C1045.33 206.632 1045.16 206.964 1045.04 207.372C1044.92 207.772 1044.86 208.272 1044.86 208.872C1044.86 209 1044.86 209.104 1044.87 209.184C1044.88 209.256 1044.88 209.336 1044.89 209.424C1044.91 209.504 1044.92 209.624 1044.93 209.784L1044.56 209.472C1044.64 208.984 1044.82 208.56 1045.1 208.2C1045.37 207.832 1045.71 207.548 1046.12 207.348C1046.53 207.14 1046.99 207.036 1047.5 207.036C1048.08 207.036 1048.6 207.164 1049.06 207.42C1049.51 207.668 1049.87 208.016 1050.12 208.464C1050.39 208.912 1050.52 209.432 1050.52 210.024C1050.52 210.608 1050.38 211.132 1050.11 211.596C1049.85 212.06 1049.47 212.424 1048.98 212.688C1048.5 212.944 1047.92 213.072 1047.27 213.072ZM1047.36 212.364C1047.81 212.364 1048.21 212.264 1048.55 212.064C1048.9 211.856 1049.16 211.576 1049.36 211.224C1049.56 210.872 1049.66 210.476 1049.66 210.036C1049.66 209.604 1049.56 209.22 1049.36 208.884C1049.16 208.548 1048.9 208.284 1048.55 208.092C1048.21 207.892 1047.81 207.792 1047.35 207.792C1046.9 207.792 1046.51 207.888 1046.16 208.08C1045.82 208.264 1045.55 208.524 1045.35 208.86C1045.16 209.196 1045.06 209.584 1045.06 210.024C1045.06 210.464 1045.16 210.86 1045.35 211.212C1045.55 211.564 1045.82 211.844 1046.16 212.052C1046.52 212.26 1046.92 212.364 1047.36 212.364ZM1051.97 210.12V209.376H1055.11V210.12H1051.97ZM1059.8 213.06C1059.18 213.06 1058.62 212.924 1058.12 212.652C1057.63 212.372 1057.25 211.992 1056.97 211.512C1056.69 211.024 1056.55 210.468 1056.55 209.844C1056.55 209.212 1056.69 208.656 1056.97 208.176C1057.25 207.696 1057.63 207.32 1058.12 207.048C1058.62 206.776 1059.18 206.64 1059.8 206.64C1060.34 206.64 1060.82 206.744 1061.25 206.952C1061.69 207.16 1062.03 207.472 1062.27 207.888L1061.64 208.32C1061.42 208 1061.15 207.764 1060.83 207.612C1060.51 207.46 1060.17 207.384 1059.79 207.384C1059.34 207.384 1058.94 207.488 1058.58 207.696C1058.22 207.896 1057.93 208.18 1057.73 208.548C1057.52 208.916 1057.41 209.348 1057.41 209.844C1057.41 210.34 1057.52 210.772 1057.73 211.14C1057.93 211.508 1058.22 211.796 1058.58 212.004C1058.94 212.204 1059.34 212.304 1059.79 212.304C1060.17 212.304 1060.51 212.228 1060.83 212.076C1061.15 211.924 1061.42 211.692 1061.64 211.38L1062.27 211.812C1062.03 212.22 1061.69 212.532 1061.25 212.748C1060.82 212.956 1060.34 213.06 1059.8 213.06ZM1066.52 213.06C1065.86 213.06 1065.29 212.924 1064.79 212.652C1064.29 212.372 1063.91 211.992 1063.63 211.512C1063.35 211.024 1063.21 210.468 1063.21 209.844C1063.21 209.22 1063.34 208.668 1063.6 208.188C1063.87 207.708 1064.24 207.332 1064.71 207.06C1065.18 206.78 1065.71 206.64 1066.29 206.64C1066.88 206.64 1067.41 206.776 1067.86 207.048C1068.33 207.312 1068.69 207.688 1068.95 208.176C1069.22 208.656 1069.35 209.212 1069.35 209.844C1069.35 209.884 1069.35 209.928 1069.34 209.976C1069.34 210.016 1069.34 210.06 1069.34 210.108H1063.85V209.472H1068.88L1068.55 209.724C1068.55 209.268 1068.45 208.864 1068.25 208.512C1068.05 208.152 1067.79 207.872 1067.45 207.672C1067.12 207.472 1066.73 207.372 1066.29 207.372C1065.86 207.372 1065.47 207.472 1065.13 207.672C1064.78 207.872 1064.51 208.152 1064.32 208.512C1064.13 208.872 1064.03 209.284 1064.03 209.748V209.88C1064.03 210.36 1064.14 210.784 1064.35 211.152C1064.56 211.512 1064.86 211.796 1065.23 212.004C1065.62 212.204 1066.05 212.304 1066.54 212.304C1066.93 212.304 1067.28 212.236 1067.61 212.1C1067.95 211.964 1068.23 211.756 1068.47 211.476L1068.95 212.028C1068.67 212.364 1068.32 212.62 1067.9 212.796C1067.48 212.972 1067.02 213.06 1066.52 213.06ZM1074.49 213.06C1073.94 213.06 1073.45 212.936 1073.01 212.688C1072.57 212.432 1072.22 212.068 1071.96 211.596C1071.7 211.116 1071.57 210.532 1071.57 209.844C1071.57 209.156 1071.7 208.576 1071.96 208.104C1072.21 207.624 1072.56 207.26 1073 207.012C1073.44 206.764 1073.94 206.64 1074.49 206.64C1075.09 206.64 1075.62 206.776 1076.1 207.048C1076.58 207.312 1076.95 207.688 1077.22 208.176C1077.5 208.656 1077.63 209.212 1077.63 209.844C1077.63 210.484 1077.5 211.044 1077.22 211.524C1076.95 212.004 1076.58 212.38 1076.1 212.652C1075.62 212.924 1075.09 213.06 1074.49 213.06ZM1071.24 215.328V206.7H1072.05V208.596L1071.97 209.856L1072.09 211.128V215.328H1071.24ZM1074.43 212.304C1074.88 212.304 1075.28 212.204 1075.63 212.004C1075.98 211.796 1076.26 211.508 1076.47 211.14C1076.68 210.764 1076.78 210.332 1076.78 209.844C1076.78 209.356 1076.68 208.928 1076.47 208.56C1076.26 208.192 1075.98 207.904 1075.63 207.696C1075.28 207.488 1074.88 207.384 1074.43 207.384C1073.98 207.384 1073.58 207.488 1073.22 207.696C1072.86 207.904 1072.58 208.192 1072.38 208.56C1072.18 208.928 1072.08 209.356 1072.08 209.844C1072.08 210.332 1072.18 210.764 1072.38 211.14C1072.58 211.508 1072.86 211.796 1073.22 212.004C1073.58 212.204 1073.98 212.304 1074.43 212.304ZM1079.46 213V206.7H1082.25C1082.96 206.7 1083.52 206.836 1083.93 207.108C1084.34 207.38 1084.55 207.78 1084.55 208.308C1084.55 208.82 1084.35 209.216 1083.96 209.496C1083.57 209.768 1083.05 209.904 1082.41 209.904L1082.58 209.652C1083.33 209.652 1083.89 209.792 1084.24 210.072C1084.59 210.352 1084.77 210.756 1084.77 211.284C1084.77 211.828 1084.57 212.252 1084.17 212.556C1083.77 212.852 1083.16 213 1082.33 213H1079.46ZM1080.29 212.328H1082.29C1082.83 212.328 1083.23 212.244 1083.51 212.076C1083.79 211.9 1083.93 211.62 1083.93 211.236C1083.93 210.852 1083.8 210.572 1083.55 210.396C1083.31 210.22 1082.91 210.132 1082.38 210.132H1080.29V212.328ZM1080.29 209.496H1082.19C1082.67 209.496 1083.05 209.404 1083.3 209.22C1083.57 209.036 1083.7 208.768 1083.7 208.416C1083.7 208.064 1083.57 207.8 1083.3 207.624C1083.05 207.448 1082.67 207.36 1082.19 207.36H1080.29V209.496ZM1089.46 213.06C1088.81 213.06 1088.23 212.924 1087.74 212.652C1087.24 212.372 1086.85 211.992 1086.57 211.512C1086.29 211.024 1086.15 210.468 1086.15 209.844C1086.15 209.22 1086.28 208.668 1086.55 208.188C1086.82 207.708 1087.19 207.332 1087.65 207.06C1088.12 206.78 1088.65 206.64 1089.24 206.64C1089.83 206.64 1090.35 206.776 1090.81 207.048C1091.27 207.312 1091.64 207.688 1091.9 208.176C1092.16 208.656 1092.3 209.212 1092.3 209.844C1092.3 209.884 1092.29 209.928 1092.28 209.976C1092.28 210.016 1092.28 210.06 1092.28 210.108H1086.8V209.472H1091.83L1091.49 209.724C1091.49 209.268 1091.39 208.864 1091.19 208.512C1091 208.152 1090.74 207.872 1090.4 207.672C1090.06 207.472 1089.68 207.372 1089.24 207.372C1088.8 207.372 1088.42 207.472 1088.07 207.672C1087.73 207.872 1087.46 208.152 1087.27 208.512C1087.08 208.872 1086.98 209.284 1086.98 209.748V209.88C1086.98 210.36 1087.08 210.784 1087.29 211.152C1087.51 211.512 1087.8 211.796 1088.18 212.004C1088.56 212.204 1089 212.304 1089.49 212.304C1089.87 212.304 1090.23 212.236 1090.56 212.1C1090.89 211.964 1091.18 211.756 1091.42 211.476L1091.9 212.028C1091.62 212.364 1091.27 212.62 1090.84 212.796C1090.43 212.972 1089.97 213.06 1089.46 213.06ZM1097.43 213.06C1096.89 213.06 1096.4 212.936 1095.96 212.688C1095.52 212.432 1095.17 212.068 1094.9 211.596C1094.65 211.116 1094.52 210.532 1094.52 209.844C1094.52 209.156 1094.65 208.576 1094.9 208.104C1095.16 207.624 1095.51 207.26 1095.95 207.012C1096.39 206.764 1096.88 206.64 1097.43 206.64C1098.03 206.64 1098.57 206.776 1099.04 207.048C1099.52 207.312 1099.9 207.688 1100.17 208.176C1100.44 208.656 1100.58 209.212 1100.58 209.844C1100.58 210.484 1100.44 211.044 1100.17 211.524C1099.9 212.004 1099.52 212.38 1099.04 212.652C1098.57 212.924 1098.03 213.06 1097.43 213.06ZM1094.18 215.328V206.7H1095V208.596L1094.91 209.856L1095.03 211.128V215.328H1094.18ZM1097.37 212.304C1097.82 212.304 1098.22 212.204 1098.57 212.004C1098.93 211.796 1099.21 211.508 1099.41 211.14C1099.62 210.764 1099.73 210.332 1099.73 209.844C1099.73 209.356 1099.62 208.928 1099.41 208.56C1099.21 208.192 1098.93 207.904 1098.57 207.696C1098.22 207.488 1097.82 207.384 1097.37 207.384C1096.93 207.384 1096.52 207.488 1096.16 207.696C1095.81 207.904 1095.53 208.192 1095.32 208.56C1095.12 208.928 1095.02 209.356 1095.02 209.844C1095.02 210.332 1095.12 210.764 1095.32 211.14C1095.53 211.508 1095.81 211.796 1096.16 212.004C1096.52 212.204 1096.93 212.304 1097.37 212.304ZM1104.9 213.012L1102.41 213V206.7H1103.26V208.896L1105.06 208.92C1105.85 208.928 1106.46 209.104 1106.87 209.448C1107.29 209.792 1107.5 210.288 1107.5 210.936C1107.5 211.608 1107.27 212.124 1106.82 212.484C1106.38 212.844 1105.74 213.02 1104.9 213.012ZM1104.84 212.364C1105.44 212.372 1105.88 212.256 1106.18 212.016C1106.48 211.768 1106.63 211.408 1106.63 210.936C1106.63 210.464 1106.48 210.12 1106.19 209.904C1105.89 209.68 1105.44 209.564 1104.84 209.556L1103.26 209.532V212.34L1104.84 212.364ZM1108.55 213V206.7H1109.4V213H1108.55Z" fill="black"/>
    <defs>
        <clipPath id="clip0_1_262">
            <rect width="35" height="35" fill="white" transform="translate(222.694 246)"/>
        </clipPath>
        <clipPath id="clip1_1_262">
            <rect width="35" height="35" fill="white" transform="translate(201 126)"/>
        </clipPath>
        <clipPath id="clip2_1_262">
            <rect width="35" height="35" fill="white" transform="translate(53 124)"/>
        </clipPath>
        <clipPath id="clip3_1_262">
            <rect width="83" height="10" fill="white" transform="translate(781 147)"/>
        </clipPath>
    </defs>
    <!-- animated flow lines -->
    <g id="arrow-animations" pointer-events="none">
        <!-- Левый блок → центр -->
        <line class="flow-blue"   x1="286"      y1="37"      x2="446.306" y2="129.029"/>
        <line class="flow-orange" x1="286.475"  y1="153.22"  x2="440.306" y2="153.22"/>
        <line class="flow-blue"   x1="288.067"  y1="267.057" x2="448.306" y2="174.029"/>

        <!-- Интернет ↔ WAF -->
        <line class="flow-blue"   x1="582"      y1="116"     x2="730"    y2="116"/>
        <line class="flow-orange" x1="582"      y1="134.199" x2="720"    y2="134.199"/>
        <line class="flow-orange" x1="582"      y1="152.398" x2="720"    y2="152.398"/>
        <line class="flow-orange" x1="582"      y1="170.596" x2="720"    y2="170.596"/>
        <line class="flow-blue"   x1="582"      y1="189.789" x2="730"    y2="189.789"/>

        <!-- Правые линии к UI блокам -->
        <line class="flow-blue"   x1="910.306"  y1="113"     x2="986.306" y2="113"/>
        <line class="flow-blue"   x1="910.306"  y1="185"     x2="986.306" y2="185"/>
    </g>
    <style>
        .flow-orange, .flow-blue{
        fill:none;
        vector-effect:non-scaling-stroke;
        stroke-linecap:round;
        stroke-dasharray:14 10;
        animation:flow 4s linear infinite;
        }
        .flow-orange{ stroke:#F05A28; stroke-width:2 }
        .flow-blue{   stroke:#2F4463; stroke-width:2; }

        @keyframes flow{ to{ stroke-dashoffset:-24 } }

        /* animated flame */
        .flame,.flame-sparks{
        transform-box: fill-box;
        transform-origin: 50% 80%;
        pointer-events: none;
        }
        .flame-outer{
        animation: flame-flicker 1.6s ease-in-out infinite alternate;
        }
        .flame-inner{
        animation: flame-flicker 1.1s ease-in-out infinite alternate-reverse;
        }
        @keyframes flame-flicker{
        0%   { transform: translateY(0)    scale(1,1) }
        35%  { transform: translateY(-0.7px) scale(1.02,.98) }
        70%  { transform: translateY(-0.3px) scale(.99,1.01) }
        100% { transform: translateY(0.6px)  scale(.98,1.02) }
        }
    </style>
</svg>
